<svg width="1069" height="727" viewBox="0 0 1069 727" fill="none" xmlns="http://www.w3.org/2000/svg">
<mask id="mask0_3_20" style="mask-type:alpha" maskUnits="userSpaceOnUse" x="0" y="0" width="1088" height="727">
<rect width="1088" height="727" fill="#D9D9D9"/>
</mask>
<g mask="url(#mask0_3_20)">
<path d="M-45.9927 1121.16C-45.9413 1120.04 -45.9119 1119.48 -45.8532 1118.37C48.71 1096.91 110.125 1020.04 196.66 982.65C215.63 974.454 235.672 970.551 254.854 963.331C271.931 956.903 289.976 953.308 308.014 950.865C344.031 945.985 380.481 945.721 416.718 943.704C450.879 941.803 486.147 939.264 518.561 927.495C557.11 913.503 587.315 876.156 612.904 845.743C644.819 807.802 673.865 767.52 706.33 730.041C734.223 697.845 766.557 662.729 808.863 650.674C907.734 622.506 1015.56 696.774 1110.53 645.677C1110.47 647.005 1110.44 647.673 1110.37 649.001C1015.48 699.834 907.748 626.967 808.995 655.208C766.769 667.286 734.385 702.057 706.367 734.099C673.879 771.262 644.782 811.221 612.846 848.84C587.139 879.113 556.89 916.079 518.4 930.049C485.964 941.825 450.717 944.503 416.542 946.528C380.334 948.671 343.899 949.096 307.919 954.071C289.866 956.566 271.806 960.212 254.707 966.647C235.532 973.86 215.513 977.8 196.558 985.981C110.103 1023.28 48.3577 1099.61 -46 1121.16H-45.9927Z" fill="#272796"/>
<path d="M-44.7378 1095.55C-44.6864 1094.43 -44.6571 1093.88 -44.5984 1092.76C52.093 1073.36 110.353 991.088 198.539 954.959C217.281 947.277 237.117 943.66 256.028 936.696C271.923 930.849 288.53 927.437 305.291 925.236C342.754 920.32 380.723 921.009 418.406 919.586C452.405 918.302 487.85 916.394 519.992 904.236C558.747 889.576 588.284 850.579 613.036 819.168C645.751 777.661 675.046 733.549 708.532 692.643C734.436 660.99 765.324 625.045 806.228 613.503C907.271 585.005 1016.2 675.614 1113.52 622.748C1113.28 623.526 1113.17 623.922 1112.95 624.729C1015.87 677.536 906.963 588.571 806.155 617.348C765.331 629 734.436 664.696 708.443 696.275C674.973 736.939 645.634 780.801 612.919 822.059C588.122 853.33 558.534 892.203 519.853 906.768C487.732 918.867 452.361 920.833 418.399 922.176C380.789 923.665 342.901 923.056 305.519 928.002C288.773 930.218 272.18 933.629 256.293 939.455C237.367 946.396 217.538 950.102 198.803 957.791C110.588 994.008 51.8875 1075.88 -44.7378 1095.56V1095.55Z" fill="#272796"/>
<path d="M-43.4902 1069.94C-43.4389 1068.83 -43.4095 1068.24 -43.3435 1067.03C6.5066 1058.21 46.5452 1032.87 85.5123 1001.71C119.629 974.432 153.099 945.083 194.048 928.42C212.739 920.819 232.545 917.81 251.31 910.759C267.403 904.713 284.289 901.375 301.329 899.342C339.811 894.749 378.771 896.305 417.437 895.534C452.024 894.845 488.437 893.612 521.093 880.97C560.603 865.672 589.862 825.837 614.475 793.252C647.351 749.728 676.492 703.481 710.212 660.587C735.537 628.369 766.52 590.34 808.283 580.192C858.287 568.041 913.039 588.513 960.673 602.006C1012.16 616.592 1070.9 635.009 1121.44 608.411C1121 608.896 1120.78 609.145 1120.36 609.659C1069.99 636.3 1011.48 618.537 959.947 604.332C912.335 591.213 857.744 571.314 807.945 583.655C766.278 593.986 735.324 631.803 709.955 663.969C676.279 706.665 647.131 752.707 614.284 796.026C589.671 828.493 560.398 868.262 520.976 883.508C488.408 896.107 452.119 897.42 417.614 898.176C379.079 899.027 340.244 897.574 301.901 902.204C284.905 904.258 268.056 907.611 252 913.635C233.213 920.686 213.392 923.761 194.694 931.37C153.657 948.077 120.018 977.352 85.7251 1004.57C46.5892 1035.64 6.39653 1060.98 -43.4976 1069.94H-43.4902Z" fill="#272796"/>
<path d="M-41.5603 1045.85C-41.4502 1044.98 -41.3915 1044.55 -41.2814 1043.72C7.81276 1035.6 45.6791 1009.85 82.4081 977.646C114.374 949.61 145.453 919.094 185.044 901.954C203.368 894.023 222.976 891.08 241.608 884.404C259.477 878.005 277.398 874.241 296.302 872.37C336.047 868.438 376.129 870.859 415.984 870.786C451.297 870.72 488.76 870.162 522.106 857.168C562.269 841.517 591.315 802.094 616.023 768.636C649.127 723.812 678.194 676.112 712.061 631.839C737.79 598.198 769.896 557.263 814.22 549.39C864.532 540.453 918.602 564.791 964.849 581.329C1016.89 599.944 1079.86 626.454 1133.52 599.966C1132.91 600.23 1132.62 600.362 1132.03 600.641C1079.81 626.659 1019.04 602.556 967.901 584.792C919.989 568.151 863.835 542.757 811.938 553.081C769.301 561.563 737.944 601.147 712.891 633.681C678.752 678.027 649.538 725.903 616.309 770.918C591.557 804.449 562.298 844.584 521.944 860.19C488.444 873.148 450.813 873.676 415.375 873.728C375.469 873.787 335.261 871.38 295.487 875.562C278.036 877.396 260.71 880.603 244.243 886.773C225.654 893.744 205.995 896.503 187.553 904.222C147.434 921.017 115.776 951.452 83.4061 979.539C46.2515 1011.77 7.86412 1037.69 -41.5383 1045.86L-41.5603 1045.85Z" fill="#272796"/>
<path d="M-38.5295 1029.36C-38.3754 1028.78 -38.302 1028.5 -38.1479 1027.95C57.3252 1010.77 93.7312 914.978 175.511 875.225C193.255 866.603 212.585 863.228 230.931 856.522C249.453 849.749 268.137 845.985 287.774 844.195C329.369 840.394 371.286 843.447 412.961 843.828C449.675 844.166 488.914 844.048 523.573 830.372C564.742 814.134 593.846 775.812 619.149 741.253C652.811 695.277 682.106 646.228 716.596 600.846C742.266 567.073 775.04 524.957 820.369 519.747C873.184 513.679 928.67 543.894 975.431 564.219C1026.94 586.612 1092.52 620.885 1148.65 595.93C1147.94 596.033 1147.59 596.085 1146.89 596.202C1091.03 621.317 1025.74 587.881 974.183 565.87C927.496 545.934 872.164 516.343 819.628 522.719C774.416 528.207 741.716 570.191 716.046 603.935C681.629 649.184 652.363 698.073 618.768 743.916C593.516 778.372 564.434 816.724 523.39 832.962C488.899 846.609 449.866 846.829 413.313 846.572C371.851 846.286 330.147 843.344 288.772 847.211C269.215 849.038 250.627 852.831 232.186 859.581C213.81 866.31 194.444 869.597 176.626 878.123C138.07 896.576 109.428 929.22 79.7589 958.943C45.6791 993.098 10.073 1020.75 -38.5369 1029.37L-38.5295 1029.36Z" fill="#272796"/>
<path d="M-34.6914 1018.65C-34.5079 1018.29 -34.4199 1018.1 -34.2364 1017.75C60.3708 997.361 85.9233 895.035 163.19 849.647C180.024 839.763 198.781 835.64 216.9 829.058C237.235 821.67 258.215 818.25 279.776 817.018C323.337 814.53 366.978 818.999 410.488 820.584C448.398 821.963 489.376 823.218 525.511 809.754C567.648 794.052 596.833 755.7 622.415 720.584C656.619 673.625 686.032 623.35 720.853 576.831C747.147 541.708 781.659 496.532 829.594 494.69C885.065 492.563 941.204 527.701 988.919 551.62C1039.92 577.191 1107.5 618.338 1165.84 594.837C1165.06 594.837 1164.67 594.844 1163.9 594.859C1105.84 618.493 1038.55 578.145 987.532 552.912C939.92 529.366 883.935 494.8 828.743 497.229C780.933 499.335 746.508 544.342 720.222 579.414C685.482 625.778 656.106 675.878 621.975 722.682C596.422 757.718 567.296 795.952 525.298 811.757C489.369 825.279 448.611 824.208 410.87 822.968C367.595 821.552 324.181 817.274 280.869 819.909C259.397 821.215 238.541 824.722 218.301 832.125C200.176 838.758 181.352 842.735 164.415 852.494C86.7305 897.251 59.9452 998.704 -34.6987 1018.65H-34.6914Z" fill="#272796"/>
<path d="M-30.3179 1011.77C-30.1197 1011.53 -30.017 1011.4 -29.8189 1011.17C65.4048 985.754 78.7021 873.075 153.752 822.308C185.726 800.685 228.883 791.895 266.889 790.971C314.039 789.826 361.041 796.547 407.971 800.061C447.202 802.996 489.692 805.902 527.668 793.377C570.833 779.135 600.583 739.551 626.099 704.09C661.925 654.306 692.365 600.817 729.16 551.709C754.698 517.62 788.697 473.376 835.501 472.811C894.715 472.099 953.797 513.76 1003.32 541.451C1053.83 569.7 1123.71 617.363 1184.05 595.182C1183.25 595.16 1182.84 595.145 1182.04 595.123C1121.97 617.421 1052.39 570.521 1001.86 542.574C952.454 515.242 893.526 474.131 834.599 475.129C787.919 475.922 754 519.99 728.477 554.013C691.77 602.945 661.367 656.236 625.622 705.836C600.113 741.231 570.437 780.603 527.426 795.006C489.692 807.641 447.408 804.963 408.352 802.211C361.672 798.924 314.912 792.438 268.034 793.795C230.168 794.889 187.04 803.935 155.037 825.148C79.5313 875.188 64.9425 986.95 -30.3105 1011.78L-30.3179 1011.77Z" fill="#272796"/>
<path d="M-25.6726 1006.75C-25.4671 1006.55 -25.3644 1006.44 -25.1663 1006.23C69.0374 975.335 71.5545 855.37 140.961 797.42C209.855 739.903 321.172 771.16 400.794 780.625C442.704 785.607 488.76 791.396 530.075 779.568C576.08 766.405 607.276 722.198 633.364 684.939C668.207 635.163 698.147 582.078 734.084 533.05C760.179 497.435 796.123 449.317 845.547 452.061C907.491 455.495 966.881 501.008 1017.82 532.096C1048.08 550.564 1078.57 569.362 1111.08 583.677C1140.1 596.451 1171.16 606.005 1202.23 595.49C1201.45 595.498 1201.07 595.505 1200.29 595.505C1138.15 616.724 1066.79 563.698 1016.4 533.219C965.582 502.475 906.339 457.476 844.667 454.321C795.367 451.797 759.512 499.709 733.423 535.251C697.568 584.095 667.664 636.968 632.887 686.561C606.791 723.768 575.676 767.674 529.833 781.028C488.76 792.988 442.916 787.463 401.175 782.687C321.34 773.552 211.499 743.498 142.194 800.23C72.2956 857.454 68.5897 976.501 -25.6653 1006.76L-25.6726 1006.75Z" fill="#272796"/>
<path d="M-21.0566 1001.62C-20.8585 1001.36 -20.7631 1001.24 -20.565 1000.97C74.2771 963.91 64.583 833.835 131.972 770.059C163.843 739.895 209.488 737.599 251.009 740.453C300.697 743.865 349.645 754.431 398.761 762.142C441.97 768.929 489.237 776.736 532.504 766.324C579.573 754.996 611.275 708.411 637.084 670.874C672.331 619.615 702.419 564.952 738.641 514.347C764.524 478.182 800.724 427.65 850.831 430.54C880.009 432.221 908.291 446.639 933.418 460.389C967.314 478.93 999.31 500.758 1031.58 521.934C1062.46 542.207 1093.55 562.803 1126.89 578.879C1155.87 592.856 1187.45 604.295 1219.34 594.258C1218.63 594.368 1218.27 594.419 1217.56 594.507C1185.79 604.588 1154.28 593.37 1125.32 579.532C1092.09 563.661 1061.09 543.278 1030.29 523.211C998.121 502.248 966.221 480.64 932.427 462.326C907.337 448.722 879.128 434.495 850.053 432.925C800.064 430.225 763.937 480.522 738.047 516.614C701.89 567.014 671.832 621.464 636.644 672.517C610.813 709.996 579.184 756.272 532.255 767.77C489.215 778.314 442.139 770.749 399.084 764.16C350.181 756.676 301.446 746.352 251.992 743.153C210.596 740.475 165.061 743.109 133.102 772.84C65.2728 835.941 73.8441 965.158 -21.042 1001.61L-21.0566 1001.62Z" fill="#272796"/>
<path d="M-16.7197 994.404C-16.5436 994.015 -16.4555 993.817 -16.2794 993.414C31.0095 972.378 48.9373 921.934 64.1646 876.002C78.7021 832.155 89.9519 781.021 121.61 745.633C152.042 711.625 197.629 711.177 240.016 715.213C293.124 720.276 345.183 733.351 397.513 743.197C441.581 751.496 490.323 761.357 535.014 751.943C582.846 741.869 614.922 693.157 640.409 655.348C677.16 600.817 708.01 542.464 746.046 488.777C771.818 452.391 808.488 401.287 859.234 407.223C889.38 410.752 917.941 426.681 943.552 441.95C978.153 462.575 1010.82 486.267 1043.8 509.343C1075.21 531.318 1106.84 553.616 1140.89 571.373C1169.75 586.421 1201.78 599.658 1234.34 590.024C1233.74 590.295 1233.44 590.427 1232.84 590.677C1200.38 600.347 1168.42 587.331 1139.56 572.407C1105.61 554.849 1074.06 532.756 1042.72 510.987C1009.83 488.124 977.243 464.644 942.738 444.239C917.156 429.11 888.654 413.357 858.595 409.945C807.953 404.192 771.334 455.054 745.539 491.374C707.555 544.841 676.719 602.967 640.012 657.278C614.504 695.021 582.472 743.454 534.764 753.638C490.257 763.14 441.676 753.484 397.741 745.347C345.601 735.691 293.733 722.822 240.83 717.95C198.532 714.054 153.055 714.758 122.527 748.414C90.7444 783.457 79.1717 834.26 64.3848 877.859C48.8566 923.643 30.5765 973.625 -16.7124 994.419L-16.7197 994.404Z" fill="#272796"/>
<path d="M-12.955 983.156C-12.8083 982.547 -12.7349 982.239 -12.5881 981.601C34.5174 959.09 49.6712 905.476 62.4988 858.774C75.0696 813.012 83.6189 759.802 113.655 721.464C143.611 683.23 191.854 684.895 236.016 690.31C290.475 696.98 343.649 711.486 397.257 722.69C442.102 732.067 491.526 743.19 537.355 734.422C585.928 725.126 617.865 674.601 643.043 636.359C680 580.221 710.726 520.202 748.651 464.681C774.768 426.454 812.613 371.197 865.934 380.177C894.737 385.027 921.655 400.795 946.04 416.064C981.191 438.069 1014.19 463.39 1047.44 488.094C1081.3 513.247 1115.26 538.978 1152.16 559.604C1180.78 575.599 1213.09 590.582 1246.18 581.285C1245.74 581.784 1245.52 582.026 1245.07 582.503C1212.06 591.829 1179.79 577.066 1151.16 561.181C1114.35 540.769 1080.45 515.25 1046.66 490.303C1013.48 465.796 980.546 440.688 945.475 418.889C921.104 403.745 894.223 388.131 865.493 383.391C812.26 374.601 774.438 429.579 748.276 467.741C710.381 523.035 679.64 582.826 642.713 638.736C617.505 676.89 585.561 727.209 537.091 736.528C491.38 745.318 442.087 734.334 397.33 725.06C343.862 713.98 290.835 699.621 236.537 693.062C192.411 687.727 144.308 686.216 114.257 724.223C84.1326 762.326 75.3265 815.301 62.5722 860.88C49.5245 907.501 34.1064 960.755 -12.9771 983.156H-12.955Z" fill="#272796"/>
<path d="M-10.0415 965.892C-9.93877 964.982 -9.8874 964.512 -9.78466 963.566C37.8125 940.835 51.007 884.756 62.2569 837.606C73.4333 790.772 80.1333 735.809 109.678 696.121C138.907 656.859 188.493 659.024 232.59 664.747C288.193 671.96 342.395 687.339 397.081 699.284C442.462 709.196 492.943 721.193 539.447 712.058C588.827 702.358 620.368 650.447 645.311 611.221C682.333 552.985 712.891 490.846 750.926 433.233C776.464 394.558 814.396 336.528 868.378 347.277C897.768 353.132 924.92 370.331 949.46 386.715C985.264 410.62 1018.8 437.812 1052.62 464.387C1087.01 491.425 1121.49 519.058 1159.08 541.598C1187.43 558.591 1220.19 575.606 1253.84 566.559C1253.62 567.352 1253.5 567.741 1253.24 568.496C1219.64 577.573 1186.92 560.778 1158.53 543.887C1121 521.552 1086.58 494.126 1052.24 467.293C1018.47 440.915 984.986 413.929 949.247 390.229C924.715 373.963 897.585 356.918 868.253 351.173C814.337 340.615 776.398 398.33 750.779 436.968C712.737 494.353 682.157 556.258 645.128 614.259C620.162 653.359 588.548 705.175 539.241 714.773C492.774 723.812 442.396 711.874 397.044 701.984C342.453 690.075 288.332 674.748 232.824 667.55C188.691 661.827 139.244 659.626 109.957 698.873C80.3901 738.494 73.5287 793.311 62.2348 840.079C50.8456 887.214 37.4969 943.087 -10.0268 965.884L-10.0415 965.892Z" fill="#272796"/>
<path d="M-8.23633 941.018C-8.17762 939.851 -8.14826 939.264 -8.0969 938.09C40.0727 916.321 52.6214 859.479 63.2915 812.454C73.9249 765.598 79.847 710.003 109.472 670.375C138.415 631.656 188.948 633.042 232.531 638.421C288.56 645.332 343.172 660.792 398.255 672.642C443.702 682.422 494.748 694.485 541.178 684.352C591.006 673.486 621.747 621.347 646.47 581.131C683.287 521.251 713.434 457.498 751.285 398.234C776.148 359.31 813.89 298.983 868.223 311.045C897.966 317.649 925.214 335.919 949.79 353.11C985.998 378.438 1019.87 407.01 1054.01 434.994C1088.71 463.448 1123.51 492.489 1161.53 516.475C1189.56 534.15 1222.56 552.758 1256.54 543.894C1256.49 545.061 1256.46 545.648 1256.41 546.822C1222.44 555.693 1189.45 537.107 1161.44 519.447C1123.43 495.483 1088.66 466.464 1053.97 438.032C1019.84 410.062 985.983 381.513 949.798 356.206C925.229 339.022 897.996 320.775 868.268 314.171C813.956 302.116 776.185 362.406 751.3 401.301C713.412 460.521 683.214 524.238 646.368 584.073C621.615 624.26 590.845 676.384 541.032 687.25C494.601 697.376 443.555 685.321 398.108 675.54C343.026 663.683 288.413 648.231 232.384 641.319C188.808 635.941 138.254 634.554 109.318 673.266C79.6929 712.894 73.7781 768.511 63.1594 815.374C52.4966 862.406 39.9626 919.263 -8.22899 941.018H-8.23633Z" fill="#272796"/>
<path d="M-6.92285 914.156C-6.86414 912.99 -6.83479 912.403 -6.78342 911.229C41.254 889.371 53.9642 832.778 64.7738 785.798C75.5319 739.03 81.6448 683.633 111.255 644.092C140.257 605.366 190.635 606.716 234.284 612.102C290.314 619.014 344.926 634.473 400.009 646.33C445.456 656.111 496.502 668.173 542.932 658.041C592.848 647.152 623.281 594.793 647.747 554.379C684.234 494.104 713.947 429.961 751.461 370.287C776.067 331.15 813.537 270.382 868.04 282.518C897.893 289.166 925.221 307.553 949.871 324.832C986.233 350.322 1020.25 379.062 1054.54 407.23C1089.4 435.867 1124.35 465.099 1162.54 489.276C1190.62 507.054 1223.75 525.867 1257.86 517.047C1257.8 518.214 1257.77 518.801 1257.72 519.975C1223.62 528.802 1190.5 510.003 1162.43 492.24C1124.26 468.085 1089.32 438.876 1054.48 410.253C1020.21 382.107 986.203 353.382 949.856 327.906C925.214 310.634 897.893 292.262 868.055 285.622C813.567 273.486 776.067 334.202 751.432 373.317C713.881 432.94 684.116 497.046 647.593 557.27C623.097 597.662 592.635 649.992 542.727 660.88C496.296 671.006 445.25 658.951 399.803 649.17C344.721 637.313 290.108 621.86 234.079 614.941C190.437 609.556 140.037 608.206 111.05 646.932C81.4394 686.487 75.3484 741.913 64.605 788.689C53.8175 835.677 41.1219 892.298 -6.92285 914.156Z" fill="#272796"/>
<path d="M-5.61646 887.295C-5.55775 886.128 -5.52839 885.541 -5.47702 884.367C42.4577 862.531 55.4394 806.305 66.4544 759.398C77.4034 712.784 83.7732 657.652 113.435 618.302C142.554 579.671 192.815 580.97 236.508 586.363C292.537 593.274 347.15 608.734 402.232 620.591C447.679 630.372 498.725 642.434 545.156 632.302C595.153 621.398 625.255 568.709 649.42 528.105C685.548 467.403 714.799 402.835 751.946 342.713C776.244 303.378 813.405 242.082 868.077 254.255C898.018 260.924 925.419 279.407 950.128 296.752C986.629 322.382 1020.78 351.276 1055.19 379.598C1090.19 408.397 1125.27 437.797 1163.6 462.135C1191.72 479.987 1224.96 498.998 1259.17 490.178C1259.11 491.345 1259.08 491.932 1259.03 493.106C1224.83 501.925 1191.6 482.936 1163.49 465.085C1125.17 440.761 1090.1 411.383 1055.12 382.599C1020.72 354.299 986.585 325.419 950.099 299.805C925.397 282.467 898.003 263.991 868.07 257.322C813.42 245.149 776.221 306.379 751.887 345.699C714.703 405.77 685.394 470.287 649.23 530.944C625.035 571.527 594.896 624.172 544.906 635.082C498.476 645.208 447.43 633.153 401.983 623.372C346.9 611.515 292.288 596.063 236.259 589.144C192.573 583.751 142.297 582.452 113.193 621.09C83.5383 660.469 77.1979 715.631 66.271 762.267C55.278 809.189 42.3329 865.459 -5.60912 887.302L-5.61646 887.295Z" fill="#272796"/>
<path d="M-4.30296 860.433C-4.24426 859.266 -4.2149 858.679 -4.16353 857.505C43.7051 835.787 57.0244 779.994 68.2963 733.182C79.4727 686.774 86.158 631.942 115.923 592.871C145.211 554.416 195.376 555.649 239.084 561.049C295.113 567.961 349.726 583.42 404.808 595.27C450.255 605.051 501.301 617.113 547.732 606.98C597.802 596.055 627.552 542.977 651.394 502.189C687.14 441.026 715.914 376.024 752.665 315.426C776.632 275.9 813.457 214.017 868.275 226.197C898.282 232.867 925.757 251.437 950.502 268.841C987.128 294.595 1021.39 323.629 1055.91 352.083C1091.03 381.029 1126.24 410.576 1164.7 435.068C1192.84 452.985 1226.18 472.165 1260.47 463.331C1260.41 464.498 1260.38 465.085 1260.33 466.259C1226.05 475.093 1192.71 455.935 1164.58 438.017C1126.13 413.547 1090.95 384.015 1055.83 355.084C1021.32 326.644 987.07 297.625 950.458 271.886C925.713 254.49 898.252 235.926 868.245 229.257C813.442 217.077 776.581 278.893 752.577 318.397C715.789 378.945 686.957 443.894 651.167 505.007C627.295 545.78 597.508 598.814 547.438 609.732C501.008 619.857 449.961 607.802 404.514 598.022C349.432 586.165 294.819 570.712 238.79 563.801C195.075 558.408 144.902 557.16 115.637 595.637C85.8865 634.745 79.2379 689.613 68.0908 736.043C56.841 782.87 43.5657 838.707 -4.3103 860.447L-4.30296 860.433Z" fill="#272796"/>
<path d="M-2.98926 833.571C-2.93055 832.404 -2.90119 831.817 -2.84983 830.643C44.9675 809.094 58.6684 753.8 70.2411 707.09C81.6817 660.924 88.7119 606.423 118.594 567.675C148.08 529.44 198.158 530.607 241.887 536.007C297.916 542.919 352.529 558.378 407.611 570.228C453.058 580.009 504.105 592.071 550.535 581.938C600.679 570.998 630.069 517.473 653.559 476.501C688.909 414.861 717.198 349.405 753.538 288.314C777.153 248.612 813.625 186.091 868.59 198.264C898.663 204.926 926.19 223.577 950.972 241.018C987.715 266.882 1022.08 296.041 1056.71 324.619C1091.95 353.704 1127.26 383.391 1165.84 408.015C1194.01 425.991 1227.44 445.332 1261.78 436.454C1261.73 437.621 1261.7 438.208 1261.64 439.382C1227.3 448.253 1193.87 428.926 1165.72 410.957C1127.15 386.348 1091.85 356.676 1056.62 327.606C1022.01 299.042 987.649 269.898 950.92 244.041C926.146 226.6 898.619 207.956 868.554 201.294C813.604 189.122 777.095 251.569 753.443 291.257C717.059 352.296 688.711 417.7 653.325 479.289C629.797 520.239 600.363 573.713 550.234 584.653C503.804 594.779 452.758 582.723 407.311 572.943C352.228 561.086 297.615 545.633 241.586 538.722C197.857 533.321 147.772 532.147 118.308 570.411C88.4404 609.204 81.4469 663.734 70.0356 709.93C58.4996 756.647 44.8427 811.999 -2.98192 833.571H-2.98926Z" fill="#272796"/>
<path d="M-1.68311 806.709C-1.6244 805.542 -1.59504 804.955 -1.54367 803.781C46.2369 782.43 60.3414 727.642 72.2224 681.058C83.9419 635.119 91.3537 581.036 121.353 542.588C151.008 504.581 201.085 505.696 244.786 511.097C300.815 518.008 355.428 533.468 410.51 545.325C455.957 555.106 507.003 567.168 553.434 557.036C603.643 546.081 632.667 492.086 655.805 450.946C690.751 388.813 718.549 322.91 754.47 261.306C777.726 221.428 813.824 158.254 868.943 170.404C899.074 177.044 926.66 195.777 951.471 213.261C988.332 239.235 1022.79 268.511 1057.53 297.215C1092.88 326.424 1128.3 356.25 1166.99 380.999C1195.17 399.02 1228.7 418.515 1263.1 409.6C1263.04 410.767 1263.01 411.354 1262.96 412.527C1228.56 421.442 1195.05 401.962 1166.87 383.941C1128.19 359.2 1092.77 329.396 1057.44 300.201C1022.72 271.519 988.266 242.251 951.419 216.292C926.608 198.814 899.03 180.089 868.906 173.442C813.809 161.291 777.667 224.392 754.375 264.255C718.402 325.801 690.552 391.66 655.563 453.734C632.388 494.852 603.32 548.803 553.118 559.758C506.688 569.883 455.641 557.828 410.194 548.047C355.112 536.19 300.499 520.738 244.47 513.826C200.77 508.433 150.685 507.303 121.052 545.34C91.0675 583.831 83.6997 637.944 72.0096 683.912C60.158 730.511 46.0975 785.35 -1.68311 806.724V806.709Z" fill="#272796"/>
<path d="M-0.369629 779.847C-0.310921 778.68 -0.281566 778.093 -0.230197 776.919C47.5064 755.759 62.0145 701.477 74.211 655.018C86.202 609.336 93.9734 555.597 124.105 517.487C153.973 479.722 203.962 480.772 247.677 486.164C303.706 493.076 358.319 508.536 413.401 520.386C458.848 530.166 509.894 542.229 556.325 532.096C606.608 521.127 635.257 466.655 658.043 425.346C692.585 362.729 719.891 296.363 755.402 234.268C778.298 194.221 814.029 130.386 869.295 142.515C899.485 149.141 927.129 167.953 951.97 185.475C988.941 211.552 1023.51 240.959 1058.34 269.773C1093.8 299.115 1129.33 329.073 1168.14 353.954C1196.33 372.026 1229.94 391.682 1264.4 382.716C1264.35 383.883 1264.32 384.47 1264.26 385.644C1229.81 394.602 1196.21 374.968 1168.02 356.896C1129.22 332.023 1093.7 302.086 1058.26 272.759C1023.45 243.953 988.882 214.567 951.926 188.498C927.085 170.976 899.448 152.178 869.265 145.553C814.022 133.424 778.247 197.185 755.314 237.21C719.759 299.254 692.402 365.569 657.815 428.134C634.993 469.421 606.3 523.849 556.024 534.811C509.594 544.936 458.547 532.881 413.1 523.1C358.018 511.243 303.405 495.791 247.376 488.879C203.661 483.486 153.657 482.43 123.819 520.224C93.7019 558.371 85.9672 612.138 74.0055 657.857C61.8457 704.332 47.3816 758.664 -0.362289 779.847H-0.369629Z" fill="#272796"/>
<path d="M0.936783 752.993C0.995491 751.826 1.02485 751.239 1.07622 750.065C48.7614 729.066 63.6365 675.254 76.1265 628.912C88.3744 583.457 96.4833 530.049 126.732 492.255C156.783 454.695 206.692 455.678 250.422 461.078C306.451 467.99 361.064 483.45 416.146 495.299C461.593 505.08 512.639 517.143 559.07 507.01C609.426 496.026 637.716 441.106 660.164 399.629C694.31 336.535 721.132 269.729 756.239 207.135C778.79 166.926 814.161 102.446 869.581 114.567C899.838 121.186 927.54 140.079 952.417 157.652C989.506 183.846 1024.18 213.379 1059.12 242.324C1094.7 271.806 1130.34 301.903 1169.27 326.923C1197.48 345.054 1231.19 364.872 1265.71 355.876C1265.65 357.043 1265.62 357.63 1265.57 358.804C1231.05 367.792 1197.35 347.996 1169.15 329.873C1130.23 304.867 1094.6 274.784 1059.04 245.318C1024.11 216.387 989.455 186.869 952.373 160.69C927.496 143.124 899.808 124.238 869.552 117.62C814.147 105.498 778.739 169.905 756.151 210.099C721 272.642 694.126 339.404 659.936 402.439C637.451 443.894 609.125 498.77 558.776 509.754C512.346 519.879 461.299 507.824 415.852 498.044C360.77 486.187 306.157 470.734 250.128 463.823C206.399 458.422 156.482 457.439 126.446 495.013C96.2118 532.844 88.1322 586.282 75.9137 631.758C63.453 678.116 48.622 731.971 0.929443 752.993H0.936783Z" fill="#272796"/>
<path d="M2.25026 726.131C2.30897 724.964 2.33832 724.377 2.38969 723.203C50.0015 702.292 65.1848 648.891 77.9316 602.651C90.3997 557.395 98.8169 504.288 129.147 466.735C159.359 429.337 209.158 430.254 252.917 435.655C308.946 442.566 363.559 458.026 418.641 469.876C464.088 479.656 515.134 491.719 561.565 481.586C612.002 470.588 639.939 415.272 662.065 373.625C695.829 310.077 722.188 242.838 756.899 179.774C779.127 139.389 814.154 74.3223 869.742 86.4582C900.072 93.0838 927.848 112.065 952.77 129.697C989.99 156.016 1024.78 185.688 1059.83 214.773C1095.53 244.401 1131.3 274.652 1170.37 299.827C1198.61 318.023 1232.42 338.017 1267.02 329.007C1266.97 330.174 1266.94 330.761 1266.88 331.935C1232.29 340.945 1198.49 320.965 1170.25 302.784C1131.2 277.624 1095.45 247.394 1059.76 217.781C1024.72 188.711 989.939 159.053 952.74 132.749C927.819 115.132 900.058 96.1507 869.735 89.5325C814.168 77.3966 779.105 142.405 756.84 182.767C722.086 245.78 695.682 312.975 661.874 376.472C639.712 418.097 611.737 473.376 561.308 484.374C514.877 494.5 463.831 482.445 418.384 472.664C363.302 460.807 308.689 445.355 252.66 438.443C208.901 433.043 159.087 432.118 128.89 469.531C98.5673 507.105 90.1868 560.242 77.7335 605.52C65.016 651.775 49.8621 705.212 2.24292 726.131H2.25026Z" fill="#272796"/>
<path d="M3.55664 699.269C3.61535 698.102 3.6447 697.515 3.69607 696.341C51.1978 675.43 66.6159 622.345 79.5609 576.186C92.2124 531.069 100.857 478.211 131.224 440.82C161.539 403.495 211.213 404.361 255.023 409.769C311.052 416.68 365.665 432.14 420.747 443.99C466.194 453.77 517.24 465.833 563.671 455.7C614.203 444.68 641.803 389.048 663.642 347.226C697.054 283.252 722.959 215.609 757.31 152.105C779.252 111.544 813.956 45.9416 869.728 58.1288C900.153 64.7764 928.003 83.868 952.983 101.566C990.343 128.031 1025.27 157.865 1060.45 187.104C1096.3 216.901 1132.19 247.328 1171.41 272.671C1199.69 290.949 1233.62 311.141 1268.34 302.145C1268.28 303.312 1268.25 303.899 1268.2 305.073C1233.49 314.068 1199.58 293.898 1171.31 275.636C1132.11 250.307 1096.22 219.901 1060.39 190.127C1025.22 160.902 990.313 131.091 952.968 104.64C927.995 86.9497 900.153 67.8727 869.743 61.2251C814 49.0452 779.252 114.597 757.288 155.135C722.9 218.595 696.944 286.194 663.496 350.124C641.627 391.924 613.99 447.526 563.473 458.547C517.042 468.672 465.996 456.617 420.549 446.837C365.467 434.98 310.854 419.527 254.825 412.616C211.022 407.208 161.333 406.335 131.025 443.667C100.659 481.065 92.0363 533.952 79.3995 579.084C66.4765 625.258 51.0804 678.365 3.56398 699.269H3.55664Z" fill="#272796"/>
<path d="M4.87013 672.407C4.92884 671.24 4.9582 670.654 5.00957 669.479C52.3645 648.436 67.9074 595.556 80.9698 549.441C93.7314 504.398 102.545 451.716 132.882 414.376C163.234 377.015 212.746 377.844 256.63 383.266C312.659 390.178 367.272 405.638 422.354 417.487C467.801 427.268 518.847 439.331 565.278 429.198C615.913 418.155 643.205 362.311 664.794 320.305C697.883 255.942 723.363 187.926 757.384 124.018C779.076 83.2664 813.508 17.2161 869.471 29.4987C900.006 36.1977 927.951 55.414 953.005 73.207C990.526 99.8487 1025.6 129.858 1060.93 159.281C1096.94 189.276 1133 219.894 1172.39 245.435C1200.73 263.815 1234.79 284.228 1269.64 275.291C1269.58 276.457 1269.56 277.044 1269.5 278.218C1234.67 287.17 1200.62 266.779 1172.28 248.414C1132.92 222.895 1096.87 192.299 1060.88 162.326C1025.57 132.925 990.511 102.938 953.005 76.318C927.951 58.5397 900.021 39.338 869.5 32.6464C813.559 20.3785 779.105 86.3848 757.384 127.114C723.333 190.978 697.803 258.958 664.684 323.277C643.065 365.261 615.752 421.083 565.124 432.125C518.693 442.251 467.647 430.196 422.2 420.415C367.118 408.558 312.505 393.106 256.476 386.187C212.599 380.772 163.072 379.935 132.721 417.289C102.376 454.629 93.5772 507.325 80.8304 552.376C67.7753 598.491 52.2398 651.386 4.86279 672.407H4.87013Z" fill="#272796"/>
</g>
</svg>
